<svg xmlns="http://www.w3.org/2000/svg" viewBox="0 0 800 800"><defs><linearGradient id="g" x1="0" y1="0" x2="1" y2="1"><stop offset="0" stop-color="#031358"/><stop offset=".6" stop-color="#253B80"/><stop offset="1" stop-color="#179BD7"/></linearGradient>
<radialGradient id="h" cx=".5" cy=".4" r=".5"><stop offset="0" stop-color="#7FD3F7" stop-opacity=".35"/><stop offset="1" stop-color="#7FD3F7" stop-opacity="0"/></radialGradient></defs>
<rect width="800" height="800" fill="url(#g)"/><circle cx="400" cy="310" r="300" fill="url(#h)"/>
<path d="M400 140c-60-40-150-25-180 30-55 5-90 60-70 115-35 40-25 105 25 130 5 55 60 85 110 70 30 35 85 40 115 10 30 30 85 25 115-10 50 15 105-15 110-70 50-25 60-90 25-130 20-55-15-110-70-115-30-55-120-70-180-30z" fill="#fff" fill-opacity=".06" stroke="#fff" stroke-opacity=".55" stroke-width="5"/>
<path d="M400 140v330" stroke="#fff" stroke-opacity=".35" stroke-width="4" stroke-dasharray="10 10"/>
<g stroke="#fff" stroke-opacity=".35" stroke-width="2"><line x1="319" y1="198" x2="247" y2="187"/><line x1="319" y1="198" x2="251" y2="224"/><line x1="469" y1="173" x2="422" y2="170"/><line x1="469" y1="173" x2="441" y2="234"/><line x1="417" y1="267" x2="435" y2="277"/><line x1="417" y1="267" x2="437" y2="296"/><line x1="197" y1="312" x2="207" y2="294"/><line x1="197" y1="312" x2="180" y2="298"/><line x1="187" y1="289" x2="180" y2="298"/><line x1="187" y1="289" x2="172" y2="284"/><line x1="365" y1="415" x2="350" y2="429"/><line x1="365" y1="415" x2="362" y2="392"/><line x1="227" y1="221" x2="229" y2="229"/><line x1="227" y1="221" x2="251" y2="224"/><line x1="459" y1="453" x2="468" y2="468"/><line x1="459" y1="453" x2="423" y2="433"/><line x1="435" y1="277" x2="437" y2="296"/><line x1="435" y1="277" x2="417" y2="267"/><line x1="565" y1="243" x2="573" y2="250"/><line x1="565" y1="243" x2="548" y2="241"/><line x1="312" y1="411" x2="335" y2="433"/><line x1="312" y1="411" x2="350" y2="429"/><line x1="253" y1="336" x2="282" y2="334"/><line x1="253" y1="336" x2="240" y2="306"/><line x1="464" y1="269" x2="483" y2="287"/><line x1="464" y1="269" x2="435" y2="277"/><line x1="422" y1="170" x2="469" y2="173"/><line x1="422" y1="170" x2="441" y2="234"/><line x1="483" y1="287" x2="464" y2="269"/><line x1="483" y1="287" x2="437" y2="296"/><line x1="315" y1="337" x2="282" y2="334"/><line x1="315" y1="337" x2="347" y2="364"/><line x1="378" y1="246" x2="417" y2="267"/><line x1="378" y1="246" x2="441" y2="234"/><line x1="535" y1="374" x2="522" y2="333"/><line x1="535" y1="374" x2="547" y2="426"/><line x1="282" y1="334" x2="277" y2="305"/><line x1="282" y1="334" x2="253" y2="336"/><line x1="412" y1="430" x2="423" y2="433"/><line x1="412" y1="430" x2="365" y2="415"/><line x1="506" y1="242" x2="548" y2="241"/><line x1="506" y1="242" x2="464" y2="269"/><line x1="362" y1="392" x2="365" y2="415"/><line x1="362" y1="392" x2="347" y2="364"/><line x1="240" y1="306" x2="253" y2="336"/><line x1="240" y1="306" x2="207" y2="294"/><line x1="188" y1="364" x2="198" y2="374"/><line x1="188" y1="364" x2="197" y2="312"/><line x1="522" y1="333" x2="490" y2="340"/><line x1="522" y1="333" x2="535" y2="374"/><line x1="573" y1="250" x2="565" y2="243"/><line x1="573" y1="250" x2="548" y2="241"/><line x1="490" y1="340" x2="522" y2="333"/><line x1="490" y1="340" x2="483" y2="287"/><line x1="437" y1="296" x2="435" y2="277"/><line x1="437" y1="296" x2="417" y2="267"/><line x1="388" y1="363" x2="362" y2="392"/><line x1="388" y1="363" x2="347" y2="364"/><line x1="198" y1="374" x2="188" y2="364"/><line x1="198" y1="374" x2="197" y2="312"/><line x1="468" y1="468" x2="459" y2="453"/><line x1="468" y1="468" x2="423" y2="433"/><line x1="548" y1="241" x2="565" y2="243"/><line x1="548" y1="241" x2="573" y2="250"/><line x1="347" y1="364" x2="362" y2="392"/><line x1="347" y1="364" x2="388" y2="363"/><line x1="180" y1="298" x2="187" y2="289"/><line x1="180" y1="298" x2="172" y2="284"/><line x1="247" y1="187" x2="251" y2="224"/><line x1="247" y1="187" x2="227" y2="221"/><line x1="229" y1="229" x2="227" y2="221"/><line x1="229" y1="229" x2="251" y2="224"/><line x1="350" y1="429" x2="335" y2="433"/><line x1="350" y1="429" x2="365" y2="415"/><line x1="207" y1="294" x2="187" y2="289"/><line x1="207" y1="294" x2="197" y2="312"/><line x1="423" y1="433" x2="412" y2="430"/><line x1="423" y1="433" x2="459" y2="453"/><line x1="547" y1="426" x2="535" y2="374"/><line x1="547" y1="426" x2="468" y2="468"/><line x1="298" y1="283" x2="277" y2="305"/><line x1="298" y1="283" x2="282" y2="334"/><line x1="335" y1="433" x2="350" y2="429"/><line x1="335" y1="433" x2="312" y2="411"/><line x1="251" y1="224" x2="229" y2="229"/><line x1="251" y1="224" x2="227" y2="221"/><line x1="277" y1="305" x2="282" y2="334"/><line x1="277" y1="305" x2="298" y2="283"/><line x1="441" y1="234" x2="417" y2="267"/><line x1="441" y1="234" x2="464" y2="269"/><line x1="172" y1="284" x2="187" y2="289"/><line x1="172" y1="284" x2="180" y2="298"/></g><circle cx="319" cy="198" r="7" fill="#7FD3F7"/><circle cx="469" cy="173" r="5" fill="#fff"/><circle cx="417" cy="267" r="7" fill="#FF8A3D"/><circle cx="197" cy="312" r="7" fill="#FF8A3D"/><circle cx="187" cy="289" r="7" fill="#fff"/><circle cx="365" cy="415" r="7" fill="#FF8A3D"/><circle cx="227" cy="221" r="5" fill="#fff"/><circle cx="459" cy="453" r="5" fill="#fff"/><circle cx="435" cy="277" r="7" fill="#fff"/><circle cx="565" cy="243" r="5" fill="#7FD3F7"/><circle cx="312" cy="411" r="9" fill="#fff"/><circle cx="253" cy="336" r="5" fill="#fff"/><circle cx="464" cy="269" r="9" fill="#fff"/><circle cx="422" cy="170" r="9" fill="#fff"/><circle cx="483" cy="287" r="7" fill="#fff"/><circle cx="315" cy="337" r="5" fill="#fff"/><circle cx="378" cy="246" r="9" fill="#FF8A3D"/><circle cx="535" cy="374" r="5" fill="#7FD3F7"/><circle cx="282" cy="334" r="7" fill="#7FD3F7"/><circle cx="412" cy="430" r="7" fill="#fff"/><circle cx="506" cy="242" r="5" fill="#FF8A3D"/><circle cx="362" cy="392" r="7" fill="#FF8A3D"/><circle cx="240" cy="306" r="7" fill="#7FD3F7"/><circle cx="188" cy="364" r="5" fill="#fff"/><circle cx="522" cy="333" r="5" fill="#7FD3F7"/><circle cx="573" cy="250" r="9" fill="#7FD3F7"/><circle cx="490" cy="340" r="7" fill="#fff"/><circle cx="437" cy="296" r="9" fill="#fff"/><circle cx="388" cy="363" r="5" fill="#7FD3F7"/><circle cx="198" cy="374" r="5" fill="#fff"/><circle cx="468" cy="468" r="9" fill="#7FD3F7"/><circle cx="548" cy="241" r="9" fill="#fff"/><circle cx="347" cy="364" r="9" fill="#7FD3F7"/><circle cx="180" cy="298" r="9" fill="#7FD3F7"/><circle cx="247" cy="187" r="5" fill="#7FD3F7"/><circle cx="229" cy="229" r="5" fill="#7FD3F7"/><circle cx="350" cy="429" r="9" fill="#fff"/><circle cx="207" cy="294" r="9" fill="#fff"/><circle cx="423" cy="433" r="5" fill="#FF8A3D"/><circle cx="547" cy="426" r="9" fill="#fff"/><circle cx="298" cy="283" r="5" fill="#FF8A3D"/><circle cx="335" cy="433" r="7" fill="#fff"/><circle cx="251" cy="224" r="5" fill="#7FD3F7"/><circle cx="277" cy="305" r="7" fill="#7FD3F7"/><circle cx="441" cy="234" r="5" fill="#7FD3F7"/><circle cx="172" cy="284" r="7" fill="#7FD3F7"/>
<path d="M370 470q30 40 10 90" fill="none" stroke="#fff" stroke-opacity=".55" stroke-width="5"/>
<rect x="60" y="600" width="90" height="8" rx="4" fill="#FF6000"/>
<text x="60" y="660" font-family="Roboto,Arial,sans-serif" font-weight="900" font-size="50" fill="#fff">Neurodivergencia</text>
<text x="60" y="705" font-family="Roboto,Arial,sans-serif" font-size="28" fill="#fff" fill-opacity=".9">Autismo: enfoque clínico y basado en evidencia</text>
<text x="60" y="745" font-family="Roboto,Arial,sans-serif" font-weight="700" font-size="24" fill="#FFB27F">Diplomado · Inicia el 12 de octubre de 2026</text></svg>